<?xml version="1.0" encoding="UTF-8"?>
<svg version="1.1" xmlns="http://www.w3.org/2000/svg" width="500" height="500">
<path d="M0 0 C7.30140477 6.30382911 10.41325468 19.94042937 11.18457031 29.22070312 C12.73021738 56.77547604 0.41318886 78.67636597 -12.1105957 102.38110352 C-20.92208223 119.09327753 -29.79106572 136.40002862 -24.30078125 155.78515625 C-22.36761399 160.56292398 -19.80574188 164.95575219 -17.04931641 169.30615234 C-14.35580721 173.69405513 -13.38921589 176.70225148 -14 182 C-16.43520642 186.77675106 -19.18100424 189.63596434 -24 192 C-28.67788641 193.22429058 -31.82066534 192.67347018 -36.0234375 190.2734375 C-38.82478873 188.29304781 -41.48841647 186.33788523 -44 184 C-44 183.34 -44 182.68 -44 182 C-44.58007812 181.76023437 -45.16015625 181.52046875 -45.7578125 181.2734375 C-55.88489967 175.52181656 -61.29454974 161.18038901 -64.375 150.625 C-68.40173334 134.25989139 -68.00498994 114.57881929 -59.16137695 99.90258789 C-57.21129225 96.85896535 -55.12429199 93.92383821 -53 91 C-52.52385254 90.34225586 -52.04770508 89.68451172 -51.55712891 89.00683594 C-49.45182061 86.10376252 -47.34311891 83.20321521 -45.22753906 80.30761719 C-34.23517642 65.16695381 -24.16106229 49.31239944 -15 33 C-14.60055176 32.29681641 -14.20110352 31.59363281 -13.78955078 30.86914062 C-8.81608572 22.06183883 -4.80714746 13.47362631 -1.875 3.78125 C-1 1 -1 1 0 0 Z " fill="#FDBF32" transform="translate(247,138)"/>
<path d="M0 0 C0.66 0 1.32 0 2 0 C15.31551518 27.89584708 26.20696286 55.17676059 15.93359375 86.22265625 C11.29925094 98.07617334 4.58253455 110.16851136 -7.5 115.5625 C-15.01667392 116.50208424 -21.73715907 115.44254367 -28 111 C-33.51075515 105.91231463 -36.48910517 101.34260608 -37.375 93.8125 C-36.2137015 82.00596529 -29.3105538 72.66177774 -23 63 C-10.16140433 43.31140561 1.50378051 24.39466169 0 0 Z " fill="#FDBF32" transform="translate(270,179)"/>
<path d="M0 0 C4.09021975 3.56000608 6.42354567 7.81059076 9 12.5 C9.44206787 13.30083008 9.88413574 14.10166016 10.33959961 14.92675781 C19.32538162 31.57811209 21.72861562 50.03548514 17.16796875 68.4921875 C11.15593665 86.54839094 -0.1075693 101.88489595 -17.234375 110.6875 C-27.43134725 115.52674107 -36.62031137 118.35354369 -47.9375 118.1875 C-48.79923828 118.18685547 -49.66097656 118.18621094 -50.54882812 118.18554688 C-56.85920759 118.14079241 -56.85920759 118.14079241 -58 117 C-58.375 113.6875 -58.375 113.6875 -58 110 C-54.95179854 107.18834327 -51.61949989 105.10460394 -48.0625 103 C-24.16261205 87.93758749 -7.91879224 65.33648683 -1 38 C1.78259044 25.38462885 1.4598425 12.77362187 0 0 Z " fill="#FDBF32" transform="translate(299,221)"/>
<path d="M0 0 C3.0916909 2.52956528 3.90931332 5.22454612 5 9 C3 9 3 9 1.375 7.5 C0.92125 7.005 0.4675 6.51 0 6 C0.185625 6.598125 0.37125 7.19625 0.5625 7.8125 C1 10 1 10 0 13 C0.66 13.33 1.32 13.66 2 14 C2 14.66 2 15.32 2 16 C1.34 16 0.68 16 0 16 C0 16.66 0 17.32 0 18 C-0.66 18 -1.32 18 -2 18 C-2 18.66 -2 19.32 -2 20 C-2.99 20 -3.98 20 -5 20 C-5.99 21.98 -6.98 23.96 -8 26 C-8.66 26 -9.32 26 -10 26 C-8.52084565 21.3989766 -6.81416998 16.9145482 -5 12.4375 C-4.73960937 11.79103516 -4.47921875 11.14457031 -4.2109375 10.47851562 C-3.47508417 8.65188981 -2.73758623 6.82592677 -2 5 C-1.33257634 3.33363633 -0.66556313 1.66710766 0 0 Z " fill="#F9C03C" transform="translate(247,138)"/>
<path d="M0 0 C0.66 0 1.32 0 2 0 C3.36698387 2.78556882 4.71634538 5.57931328 6.0625 8.375 C6.45244141 9.1690625 6.84238281 9.963125 7.24414062 10.78125 C7.60830078 11.54179687 7.97246094 12.30234375 8.34765625 13.0859375 C8.85824585 14.1385376 8.85824585 14.1385376 9.37915039 15.21240234 C9.58403076 15.80230957 9.78891113 16.3922168 10 17 C9.67 17.66 9.34 18.32 9 19 C8.34 18.67 7.68 18.34 7 18 C7 17.34 7 16.68 7 16 C6.030625 16.33 5.06125 16.66 4.0625 17 C1 18 1 18 0 18 C0 12.06 0 6.12 0 0 Z " fill="#F7C03F" transform="translate(270,179)"/>
<path d="M0 0 C1.32 0 2.64 0 4 0 C4.33 1.98 4.66 3.96 5 6 C3.39773045 6.22245393 1.79303233 6.42746669 0.1875 6.625 C-0.70582031 6.74101562 -1.59914063 6.85703125 -2.51953125 6.9765625 C-5 7 -5 7 -8 5 C-7.05125 4.690625 -6.1025 4.38125 -5.125 4.0625 C-2.13919592 3.12605258 -2.13919592 3.12605258 0 2 C0 1.34 0 0.68 0 0 Z " fill="#F9C82D" transform="translate(258,288)"/>
<path d="M0 0 C0.33 0 0.66 0 1 0 C1.54992842 9.84982908 1.73261543 17.48297137 -4 26 C-5.66363076 22.67273847 -4.00831958 19.27265582 -3.125 15.8125 C-1.80100345 10.54847232 -0.6710678 5.38995943 0 0 Z " fill="#F5C63E" transform="translate(300,246)"/>
<path d="M0 0 C3.0916909 2.52956528 3.90931332 5.22454612 5 9 C4.34 9 3.68 9 3 9 C2.67 8.34 2.34 7.68 2 7 C1.34 7 0.68 7 0 7 C-0.99 8.98 -1.98 10.96 -3 13 C-4.39943663 10.20112673 -3.54753576 8.87861172 -2.625 5.9375 C-2.34914062 5.03902344 -2.07328125 4.14054688 -1.7890625 3.21484375 C-1 1 -1 1 0 0 Z " fill="#F1C14F" transform="translate(247,138)"/>
<path d="M0 0 C0.93423645 3.01031744 1.04449911 3.86650268 0 7 C-0.99 7.33 -1.98 7.66 -3 8 C-4.66589237 9.85811713 -4.66589237 9.85811713 -6.1875 12.0625 C-6.71730469 12.79597656 -7.24710938 13.52945313 -7.79296875 14.28515625 C-8.19128906 14.85105469 -8.58960938 15.41695312 -9 16 C-9 11.86002304 -6.83167083 9.54392969 -4.5 6.3125 C-4.07074219 5.70599609 -3.64148438 5.09949219 -3.19921875 4.47460938 C-2.13906862 2.97861974 -1.07034429 1.488713 0 0 Z " fill="#F5C34A" transform="translate(211,205)"/>
<path d="M0 0 C2.33333823 2.12121657 3.9148886 4.01594365 5 7 C4.625 9.25 4.625 9.25 4 11 C3.34 11 2.68 11 2 11 C-0.32590854 7.36576791 -0.16265833 4.22911669 0 0 Z " fill="#F7C144" transform="translate(308,236)"/>
<path d="M0 0 C0.33 1.32 0.66 2.64 1 4 C0.360625 4.226875 -0.27875 4.45375 -0.9375 4.6875 C-3.27193661 5.85250896 -3.27193661 5.85250896 -3.75 8.625 C-3.8325 9.40875 -3.915 10.1925 -4 11 C-5.32 11.33 -6.64 11.66 -8 12 C-5.6163187 7.65829477 -3.21880117 3.7935871 0 0 Z " fill="#F5C54C" transform="translate(200,221)"/>
<path d="M0 0 C0.66 0.99 1.32 1.98 2 3 C1.375 6.125 1.375 6.125 0 9 C-2.125 9.875 -2.125 9.875 -4 10 C-3.43454163 6.04179141 -2.19097652 3.3340947 0 0 Z " fill="#F9C43B" transform="translate(235,166)"/>
<path d="M0 0 C0.99 0.33 1.98 0.66 3 1 C3 3.31 3 5.62 3 8 C3.66 8 4.32 8 5 8 C5 9.65 5 11.3 5 13 C1.42988974 9.267612 0.89086558 4.9050011 0 0 Z " fill="#F5C049" transform="translate(184,290)"/>
<path d="M0 0 C2.79872437 2.52788007 4.45773019 4.20411134 5 8 C4.34 8 3.68 8 3 8 C2.34 8.99 1.68 9.98 1 11 C0.67 7.37 0.34 3.74 0 0 Z " fill="#F2C64D" transform="translate(299,221)"/>
<path d="M0 0 C1.32 0.33 2.64 0.66 4 1 C2.25 4.875 2.25 4.875 0 6 C0 5.34 0 4.68 0 4 C-0.66 4 -1.32 4 -2 4 C-1.34 2.68 -0.68 1.36 0 0 Z " fill="#F7C148" transform="translate(297,314)"/>
<path d="M0 0 C0.99 0.495 0.99 0.495 2 1 C2 1.66 2 2.32 2 3 C2.66 3 3.32 3 4 3 C3.34 4.98 2.68 6.96 2 9 C0.14223235 5.86501708 -0.20140476 3.62528568 0 0 Z " fill="#F6C144" transform="translate(226,245)"/>
<path d="M0 0 C0.99 0 1.98 0 3 0 C3 0.66 3 1.32 3 2 C3.99 2.33 4.98 2.66 6 3 C5.67 3.99 5.34 4.98 5 6 C4.67 5.34 4.34 4.68 4 4 C1.98330173 2.86649466 1.98330173 2.86649466 0 2 C0 1.34 0 0.68 0 0 Z " fill="#F8D030" transform="translate(199,316)"/>
</svg>
